<svg width="30" height="30" viewBox="0 0 30 30" fill="none" xmlns="http://www.w3.org/2000/svg">
<g id="shapes-plus-x-square-circle">
<path id="Vector" d="M10 5C10 4.30965 9.44035 3.75 8.75 3.75C8.05965 3.75 7.5 4.30965 7.5 5H10ZM7.5 12.5C7.5 13.1904 8.05965 13.75 8.75 13.75C9.44035 13.75 10 13.1904 10 12.5H7.5ZM5 7.5C4.30965 7.5 3.75 8.05965 3.75 8.75C3.75 9.44035 4.30965 10 5 10V7.5ZM12.5 10C13.1904 10 13.75 9.44035 13.75 8.75C13.75 8.05965 13.1904 7.5 12.5 7.5V10ZM24.7852 19.4816C25.2734 18.9934 25.2734 18.202 24.7852 17.7139C24.2971 17.2256 23.5056 17.2256 23.0175 17.7139L24.7852 19.4816ZM17.7141 23.0171C17.226 23.5053 17.226 24.2967 17.7141 24.7849C18.2024 25.273 18.9937 25.273 19.4819 24.7849L17.7141 23.0171ZM19.4819 17.7139C18.9937 17.2256 18.2024 17.2256 17.7141 17.7139C17.226 18.202 17.226 18.9934 17.7141 19.4816L19.4819 17.7139ZM23.0175 24.7849C23.5056 25.273 24.2971 25.273 24.7852 24.7849C25.2734 24.2967 25.2734 23.5053 24.7852 23.0171L23.0175 24.7849ZM21.25 11.25C19.8692 11.25 18.75 10.1307 18.75 8.75H16.25C16.25 11.5114 18.4886 13.75 21.25 13.75V11.25ZM23.75 8.75C23.75 10.1307 22.6308 11.25 21.25 11.25V13.75C24.0114 13.75 26.25 11.5114 26.25 8.75H23.75ZM21.25 6.25C22.6308 6.25 23.75 7.36929 23.75 8.75H26.25C26.25 5.98857 24.0114 3.75 21.25 3.75V6.25ZM21.25 3.75C18.4886 3.75 16.25 5.98857 16.25 8.75H18.75C18.75 7.36929 19.8692 6.25 21.25 6.25V3.75ZM7.5 5V8.75H10V5H7.5ZM7.5 8.75V12.5H10V8.75H7.5ZM5 10H8.75V7.5H5V10ZM8.75 10H12.5V7.5H8.75V10ZM23.0175 17.7139L20.3658 20.3655L22.1336 22.1333L24.7852 19.4816L23.0175 17.7139ZM20.3658 20.3655L17.7141 23.0171L19.4819 24.7849L22.1336 22.1333L20.3658 20.3655ZM17.7141 19.4816L20.3658 22.1333L22.1336 20.3655L19.4819 17.7139L17.7141 19.4816ZM20.3658 22.1333L23.0175 24.7849L24.7852 23.0171L22.1336 20.3655L20.3658 22.1333ZM6.25 18.75H11.25V16.25H6.25V18.75ZM11.25 18.75V23.75H13.75V18.75H11.25ZM11.25 23.75H6.25V26.25H11.25V23.75ZM6.25 23.75V18.75H3.75V23.75H6.25ZM6.25 23.75H3.75C3.75 25.1308 4.86929 26.25 6.25 26.25V23.75ZM11.25 23.75V26.25C12.6307 26.25 13.75 25.1308 13.75 23.75H11.25ZM11.25 18.75H13.75C13.75 17.3693 12.6307 16.25 11.25 16.25V18.75ZM6.25 16.25C4.86929 16.25 3.75 17.3693 3.75 18.75H6.25V16.25Z" fill="black"/>
</g>
</svg>
