<svg width="910" height="400" viewBox="0 0 910 400" fill="none" xmlns="http://www.w3.org/2000/svg">
  <path d="M696.438 258.891C704.688 258.891 711.618 257.461 717.228 254.601C722.949 251.631 727.459 248.276 730.759 244.536C734.169 240.795 736.479 237.66 737.689 235.13C739.999 230.29 741.319 224.68 741.649 218.3C741.937 214.05 742.131 210.272 742.23 206.965C734.945 208.842 728.535 210.038 723.387 210.999L723.169 211.04C714.918 212.47 708.263 213.79 703.203 215C698.143 216.21 693.688 217.53 689.838 218.96C685.438 220.72 681.863 222.645 679.113 224.735C676.473 226.715 674.493 228.915 673.172 231.335C671.962 233.755 671.357 236.45 671.357 239.42C671.357 243.491 672.347 247.011 674.328 249.981C676.418 252.841 679.333 255.041 683.073 256.581C686.813 258.121 691.268 258.891 696.438 258.891Z" fill="#16171A"/>
  <path fill-rule="evenodd" clip-rule="evenodd" d="M11.5304 57.7623C0 80.3921 0 110.016 0 169.264V230.736C0 289.984 0 319.608 11.5304 342.238C21.6729 362.143 37.8567 378.327 57.7623 388.47C80.3921 400 110.016 400 169.264 400H739.746C798.994 400 828.618 400 851.248 388.47C871.153 378.327 887.337 362.143 897.48 342.238C909.01 319.608 909.01 289.984 909.01 230.736V169.264C909.01 110.016 909.01 80.3921 897.48 57.7623C887.337 37.8567 871.153 21.6729 851.248 11.5304C828.618 0 798.994 0 739.746 0H169.264C110.016 0 80.3921 0 57.7623 11.5304C37.8567 21.6729 21.6729 37.8567 11.5304 57.7623ZM686.868 294.202C674.107 294.202 663.272 291.781 654.362 286.941C645.562 281.991 638.852 275.446 634.232 267.306C629.722 259.056 627.467 249.981 627.467 240.08C627.467 231.83 628.131 227.078 630.661 220.258C633.191 213.438 637.17 207.3 642.78 202.13C648.5 196.85 656.373 193.22 662.745 191.288C669.118 189.356 681.01 186.571 688.588 185.299C691.049 184.886 693.949 184.424 697.266 183.897L697.268 183.896L697.271 183.896C704.164 182.799 712.86 181.416 723.169 179.582C731.125 178.167 737.247 175.898 742.765 172.742C742.071 164.682 739.609 158.582 735.379 154.444C730.319 149.494 721.848 147.019 709.968 147.019C703.368 147.019 696.493 148.614 689.343 151.804C682.193 154.994 677.188 160.659 674.328 168.799L633.737 155.929C638.247 141.188 646.717 129.198 659.147 119.958C671.577 110.718 688.518 106.098 709.968 106.098C725.699 106.098 739.669 108.518 751.879 113.358C764.089 118.198 773.33 126.558 779.6 138.438C783.12 145.038 785.21 151.639 785.87 158.239C786.53 164.839 786.86 172.209 786.86 180.349V289.251H747.589V267.376C740.498 275.73 732.963 282.031 724.984 286.281C714.973 291.562 702.268 294.202 686.868 294.202ZM549.577 289.246V183.974C549.577 172.204 546.772 163.073 541.162 156.583C535.662 149.983 528.017 146.683 518.226 146.683C511.956 146.683 506.511 148.168 501.891 151.138C497.271 153.998 493.641 158.068 491.001 163.348C488.471 168.519 487.206 174.514 487.206 181.334V289.246H442.325V183.974C442.325 172.204 439.52 163.073 433.91 156.583C428.409 149.983 420.764 146.683 410.974 146.683C401.624 146.683 394.089 149.928 388.369 156.418C382.759 162.798 379.953 171.104 379.953 181.334V289.246H334.743V111.042H374.343V130.567C379.512 124.2 385.837 118.956 393.319 114.837C403.219 109.447 414.274 106.752 426.484 106.752C440.455 106.752 451.895 109.722 460.805 115.662C468.248 120.564 474.08 126.813 478.302 134.41C483.965 126.039 491.278 119.46 500.241 114.672C510.031 109.392 520.866 106.752 532.747 106.752C553.097 106.752 568.442 112.802 578.783 124.903C589.233 136.893 594.458 152.623 594.458 172.094V289.246H549.577ZM157.448 287.431C166.248 292.161 177.633 294.526 191.604 294.526C209.094 294.526 223.559 290.731 235 283.141C240.429 279.573 245.214 275.483 249.355 270.87V289.246H288.956V111.043H243.745V201.464C243.745 212.465 242.48 221.375 239.95 228.195C237.53 234.905 234.395 240.02 230.545 243.54C226.695 246.95 222.569 249.26 218.169 250.47C213.769 251.68 209.644 252.285 205.794 252.285C196.224 252.285 188.799 250.14 183.519 245.85C178.348 241.56 174.608 236.225 172.298 229.845C169.988 223.465 168.613 217.14 168.173 210.87C167.733 204.489 167.513 199.264 167.513 195.194V111.043H121.972V211.035C121.972 214.005 122.192 218.735 122.632 225.225C123.072 231.715 124.337 238.92 126.427 246.84C128.517 254.651 131.983 262.186 136.823 269.446C141.773 276.706 148.648 282.701 157.448 287.431Z" fill="#16171A"/>
</svg>
